<svg xmlns="http://www.w3.org/2000/svg" xmlns:xlink="http://www.w3.org/1999/xlink" width="164" zoomAndPan="magnify" viewBox="0 0 123 104.999996" height="140" preserveAspectRatio="xMidYMid meet" version="1.0"><defs><clipPath id="de025f76e1"><path d="M 0 0 L 122.25 0 L 122.25 105 L 0 105 Z M 0 0 " clip-rule="nonzero"/></clipPath></defs><g clip-path="url(#de025f76e1)"><path fill="#000000" d="M 109.113281 0 L 13.136719 0 C 5.921875 0 0.0507812 5.886719 0.0507812 13.125 L 0.0507812 91.875 C 0.0507812 99.113281 5.921875 105 13.136719 105 L 109.113281 105 C 116.328125 105 122.199219 99.113281 122.199219 91.875 L 122.199219 13.125 C 122.199219 5.886719 116.328125 0 109.113281 0 Z M 13.136719 8.75 L 109.113281 8.75 C 111.519531 8.75 113.472656 10.710938 113.472656 13.125 L 113.472656 17.226562 L 8.777344 17.226562 L 8.777344 13.125 C 8.777344 10.710938 10.730469 8.75 13.136719 8.75 Z M 109.113281 96.25 L 13.136719 96.25 C 10.730469 96.25 8.777344 94.289062 8.777344 91.875 L 8.777344 25.976562 L 113.472656 25.976562 L 113.472656 91.875 C 113.472656 94.289062 111.519531 96.25 109.113281 96.25 Z M 30.585938 70 L 39.3125 70 C 46.53125 70 52.398438 64.113281 52.398438 56.875 L 52.398438 48.125 C 52.398438 40.886719 46.53125 35 39.3125 35 L 30.585938 35 C 23.371094 35 17.5 40.886719 17.5 48.125 L 17.5 56.875 C 17.5 64.113281 23.371094 70 30.585938 70 Z M 26.226562 48.125 C 26.226562 45.710938 28.179688 43.75 30.585938 43.75 L 39.3125 43.75 C 41.71875 43.75 43.675781 45.710938 43.675781 48.125 L 43.675781 56.875 C 43.675781 59.289062 41.71875 61.25 39.3125 61.25 L 30.585938 61.25 C 28.179688 61.25 26.226562 59.289062 26.226562 56.875 Z M 104.75 43.75 C 104.75 46.167969 102.796875 48.125 100.386719 48.125 L 65.488281 48.125 C 63.078125 48.125 61.125 46.167969 61.125 43.75 C 61.125 41.332031 63.078125 39.375 65.488281 39.375 L 100.386719 39.375 C 102.796875 39.375 104.75 41.332031 104.75 43.75 Z M 104.75 61.25 C 104.75 63.667969 102.796875 65.625 100.386719 65.625 L 65.488281 65.625 C 63.078125 65.625 61.125 63.667969 61.125 61.25 C 61.125 58.832031 63.078125 56.875 65.488281 56.875 L 100.386719 56.875 C 102.796875 56.875 104.75 58.832031 104.75 61.25 Z M 104.75 83.125 C 104.75 85.542969 102.796875 87.5 100.386719 87.5 L 21.863281 87.5 C 19.453125 87.5 17.5 85.542969 17.5 83.125 C 17.5 80.707031 19.453125 78.75 21.863281 78.75 L 100.386719 78.75 C 102.796875 78.75 104.75 80.707031 104.75 83.125 Z M 104.75 83.125 " fill-opacity="1" fill-rule="nonzero"/></g></svg>