<svg xmlns="http://www.w3.org/2000/svg" xmlns:xlink="http://www.w3.org/1999/xlink" width="140" zoomAndPan="magnify" viewBox="0 0 104.88 119.999999" height="160" preserveAspectRatio="xMidYMid meet" version="1.0"><defs><clipPath id="7efbee07dd"><path d="M 0 0.0703125 L 104 0.0703125 L 104 119.929688 L 0 119.929688 Z M 0 0.0703125 " clip-rule="nonzero"/></clipPath></defs><g clip-path="url(#7efbee07dd)"><path fill="#000000" d="M 85.964844 119.917969 L 17.859375 119.917969 C 17.277344 119.917969 16.695312 119.890625 16.117188 119.832031 C 15.535156 119.773438 14.960938 119.6875 14.390625 119.574219 C 13.816406 119.460938 13.253906 119.316406 12.695312 119.148438 C 12.136719 118.976562 11.589844 118.78125 11.050781 118.558594 C 10.515625 118.335938 9.988281 118.085938 9.472656 117.8125 C 8.960938 117.535156 8.460938 117.238281 7.976562 116.914062 C 7.492188 116.589844 7.023438 116.242188 6.574219 115.871094 C 6.125 115.503906 5.691406 115.113281 5.28125 114.699219 C 4.867188 114.289062 4.476562 113.855469 4.109375 113.40625 C 3.738281 112.953125 3.390625 112.488281 3.066406 112.003906 C 2.742188 111.519531 2.445312 111.019531 2.167969 110.503906 C 1.894531 109.992188 1.644531 109.464844 1.421875 108.925781 C 1.199219 108.390625 1 107.839844 0.832031 107.285156 C 0.664062 106.726562 0.519531 106.160156 0.40625 105.589844 C 0.292969 105.019531 0.207031 104.441406 0.148438 103.863281 C 0.0898438 103.285156 0.0625 102.703125 0.0625 102.121094 L 0.0625 54.378906 C 0.0546875 52.109375 0.480469 49.921875 1.332031 47.816406 C 2.179688 45.710938 3.398438 43.84375 4.980469 42.214844 L 41.414062 4.539062 C 41.75 4.1875 42.105469 3.851562 42.480469 3.535156 C 42.851562 3.21875 43.238281 2.921875 43.644531 2.644531 C 44.046875 2.367188 44.460938 2.109375 44.890625 1.875 C 45.316406 1.636719 45.757812 1.425781 46.207031 1.234375 C 46.65625 1.042969 47.113281 0.871094 47.582031 0.726562 C 48.046875 0.582031 48.523438 0.460938 49 0.363281 C 49.480469 0.265625 49.960938 0.191406 50.449219 0.140625 C 50.9375 0.09375 51.421875 0.0703125 51.914062 0.0703125 C 52.402344 0.0703125 52.890625 0.09375 53.375 0.140625 C 53.863281 0.191406 54.34375 0.265625 54.824219 0.363281 C 55.304688 0.460938 55.777344 0.582031 56.242188 0.726562 C 56.710938 0.871094 57.167969 1.042969 57.617188 1.234375 C 58.070312 1.425781 58.507812 1.636719 58.9375 1.875 C 59.363281 2.109375 59.78125 2.367188 60.183594 2.644531 C 60.585938 2.921875 60.972656 3.21875 61.34375 3.535156 C 61.71875 3.851562 62.074219 4.1875 62.414062 4.539062 L 102.242188 45.726562 C 102.492188 45.980469 102.710938 46.257812 102.90625 46.558594 C 103.101562 46.855469 103.265625 47.171875 103.398438 47.503906 C 103.527344 47.835938 103.628906 48.175781 103.691406 48.527344 C 103.757812 48.878906 103.785156 49.230469 103.78125 49.589844 C 103.777344 49.945312 103.734375 50.296875 103.660156 50.648438 C 103.585938 50.996094 103.476562 51.332031 103.335938 51.660156 C 103.195312 51.988281 103.023438 52.296875 102.820312 52.59375 C 102.617188 52.886719 102.386719 53.15625 102.128906 53.402344 C 101.875 53.652344 101.597656 53.871094 101.296875 54.066406 C 100.996094 54.257812 100.679688 54.421875 100.347656 54.550781 C 100.015625 54.683594 99.675781 54.777344 99.324219 54.84375 C 98.972656 54.90625 98.617188 54.933594 98.261719 54.925781 C 97.90625 54.917969 97.550781 54.878906 97.203125 54.800781 C 96.855469 54.726562 96.515625 54.613281 96.191406 54.472656 C 95.863281 54.328125 95.554688 54.15625 95.261719 53.949219 C 94.96875 53.746094 94.699219 53.515625 94.453125 53.257812 L 54.621094 12.085938 C 54.449219 11.902344 54.257812 11.734375 54.050781 11.589844 C 53.839844 11.441406 53.621094 11.320312 53.386719 11.21875 C 53.15625 11.117188 52.914062 11.042969 52.667969 10.992188 C 52.417969 10.9375 52.167969 10.914062 51.914062 10.914062 C 51.660156 10.914062 51.40625 10.9375 51.160156 10.992188 C 50.910156 11.042969 50.667969 11.117188 50.4375 11.21875 C 50.203125 11.320312 49.984375 11.441406 49.777344 11.589844 C 49.570312 11.734375 49.378906 11.902344 49.203125 12.085938 L 12.769531 49.746094 C 12.167969 50.371094 11.707031 51.082031 11.386719 51.886719 C 11.0625 52.691406 10.90625 53.523438 10.910156 54.390625 L 10.910156 102.121094 C 10.910156 102.578125 10.957031 103.027344 11.046875 103.476562 C 11.136719 103.925781 11.269531 104.359375 11.445312 104.78125 C 11.617188 105.207031 11.832031 105.605469 12.085938 105.988281 C 12.34375 106.367188 12.628906 106.71875 12.953125 107.042969 C 13.277344 107.363281 13.628906 107.652344 14.007812 107.90625 C 14.390625 108.160156 14.789062 108.375 15.210938 108.550781 C 15.632812 108.726562 16.070312 108.859375 16.519531 108.949219 C 16.964844 109.039062 17.417969 109.082031 17.875 109.085938 L 85.980469 109.085938 C 86.335938 109.085938 86.6875 109.117188 87.035156 109.1875 C 87.386719 109.257812 87.726562 109.359375 88.054688 109.496094 C 88.382812 109.632812 88.695312 109.800781 88.988281 109.996094 C 89.285156 110.195312 89.558594 110.417969 89.8125 110.671875 C 90.0625 110.921875 90.285156 111.195312 90.484375 111.492188 C 90.683594 111.789062 90.847656 112.101562 90.984375 112.429688 C 91.121094 112.757812 91.222656 113.097656 91.292969 113.445312 C 91.363281 113.792969 91.398438 114.144531 91.398438 114.5 C 91.398438 114.855469 91.363281 115.210938 91.292969 115.558594 C 91.222656 115.90625 91.121094 116.246094 90.984375 116.574219 C 90.847656 116.902344 90.683594 117.214844 90.484375 117.511719 C 90.285156 117.808594 90.0625 118.082031 89.8125 118.332031 C 89.558594 118.582031 89.285156 118.808594 88.988281 119.007812 C 88.695312 119.203125 88.382812 119.371094 88.054688 119.507812 C 87.726562 119.644531 87.386719 119.746094 87.035156 119.816406 C 86.6875 119.882812 86.335938 119.917969 85.980469 119.917969 Z M 85.964844 119.917969 " fill-opacity="1" fill-rule="nonzero"/></g></svg>