<svg xmlns="http://www.w3.org/2000/svg" xmlns:xlink="http://www.w3.org/1999/xlink" width="163" zoomAndPan="magnify" viewBox="0 0 122.25 122.250003" height="163" preserveAspectRatio="xMidYMid meet" version="1.0"><defs><clipPath id="af38502a4f"><path d="M 0 0 L 120.757812 0 L 120.757812 120.757812 L 0 120.757812 Z M 0 0 " clip-rule="nonzero"/></clipPath></defs><path fill="#000000" d="M 94.628906 30.558594 C 97.773438 30.558594 100.320312 28.007812 100.320312 24.867188 C 100.320312 21.722656 97.773438 19.171875 94.628906 19.171875 C 91.484375 19.171875 88.9375 21.722656 88.9375 24.867188 C 88.9375 28.007812 91.484375 30.558594 94.628906 30.558594 Z M 94.628906 30.558594 " fill-opacity="1" fill-rule="nonzero"/><path fill="#000000" d="M 60.5 92.296875 C 78.03125 92.296875 92.296875 78.035156 92.296875 60.5 C 92.296875 42.96875 78.03125 28.707031 60.5 28.707031 C 42.96875 28.707031 28.707031 42.96875 28.707031 60.5 C 28.707031 78.035156 42.96875 92.296875 60.5 92.296875 Z M 60.5 36.820312 C 73.558594 36.820312 84.183594 47.445312 84.183594 60.5 C 84.183594 73.558594 73.558594 84.183594 60.5 84.183594 C 47.445312 84.183594 36.820312 73.558594 36.820312 60.5 C 36.820312 47.445312 47.445312 36.820312 60.5 36.820312 Z M 60.5 36.820312 " fill-opacity="1" fill-rule="nonzero"/><g clip-path="url(#af38502a4f)"><path fill="#000000" d="M 29.53125 121.003906 L 91.472656 121.003906 C 107.753906 121.003906 121.003906 107.753906 121.003906 91.46875 L 121.003906 29.53125 C 121.003906 13.25 107.753906 0 91.472656 0 L 29.53125 0 C 13.25 0 0 13.25 0 29.53125 L 0 91.46875 C 0 107.753906 13.25 121.003906 29.53125 121.003906 Z M 8.117188 29.53125 C 8.117188 17.722656 17.722656 8.113281 29.53125 8.113281 L 91.472656 8.113281 C 103.28125 8.113281 112.886719 17.722656 112.886719 29.53125 L 112.886719 91.46875 C 112.886719 103.28125 103.28125 112.886719 91.472656 112.886719 L 29.53125 112.886719 C 17.722656 112.886719 8.117188 103.28125 8.117188 91.46875 Z M 8.117188 29.53125 " fill-opacity="1" fill-rule="nonzero"/></g></svg>