<svg xmlns="http://www.w3.org/2000/svg" xmlns:xlink="http://www.w3.org/1999/xlink" width="182" zoomAndPan="magnify" viewBox="0 0 136.5 96.75" height="129" preserveAspectRatio="xMidYMid meet" version="1.0"><defs><clipPath id="d8cc0cc453"><path d="M 0 39 L 135.253906 39 L 135.253906 57 L 0 57 Z M 0 39 " clip-rule="nonzero"/></clipPath><clipPath id="0c51f46d47"><path d="M 0 79 L 135.253906 79 L 135.253906 96.449219 L 0 96.449219 Z M 0 79 " clip-rule="nonzero"/></clipPath><clipPath id="e4cb8c2bf2"><path d="M 0 0.0507812 L 135.253906 0.0507812 L 135.253906 18 L 0 18 Z M 0 0.0507812 " clip-rule="nonzero"/></clipPath></defs><g clip-path="url(#d8cc0cc453)"><path fill="#000000" d="M 126.800781 39.75 L 8.453125 39.75 C 3.785156 39.75 0 43.554688 0 48.25 C 0 52.945312 3.785156 56.75 8.453125 56.75 L 126.800781 56.75 C 131.46875 56.75 135.253906 52.945312 135.253906 48.25 C 135.253906 43.554688 131.46875 39.75 126.800781 39.75 Z M 126.800781 39.75 " fill-opacity="1" fill-rule="nonzero"/></g><g clip-path="url(#0c51f46d47)"><path fill="#000000" d="M 126.800781 79.421875 L 8.453125 79.421875 C 3.785156 79.421875 0 83.226562 0 87.921875 C 0 92.617188 3.785156 96.425781 8.453125 96.425781 L 126.800781 96.425781 C 131.46875 96.425781 135.253906 92.617188 135.253906 87.921875 C 135.253906 83.226562 131.46875 79.421875 126.800781 79.421875 Z M 126.800781 79.421875 " fill-opacity="1" fill-rule="nonzero"/></g><g clip-path="url(#e4cb8c2bf2)"><path fill="#000000" d="M 8.453125 17.078125 L 126.800781 17.078125 C 131.46875 17.078125 135.253906 13.273438 135.253906 8.578125 C 135.253906 3.882812 131.46875 0.0742188 126.800781 0.0742188 L 8.453125 0.0742188 C 3.785156 0.0742188 0 3.882812 0 8.578125 C 0 13.273438 3.785156 17.078125 8.453125 17.078125 Z M 8.453125 17.078125 " fill-opacity="1" fill-rule="nonzero"/></g></svg>