<svg xmlns="http://www.w3.org/2000/svg" xmlns:xlink="http://www.w3.org/1999/xlink" width="180" zoomAndPan="magnify" viewBox="0 0 135 135.000003" height="180" preserveAspectRatio="xMidYMid meet" version="1.0"><defs><clipPath id="a80dc0d11b"><path d="M 0.496094 0 L 134.503906 0 L 134.503906 134.007812 L 0.496094 134.007812 Z M 0.496094 0 " clip-rule="nonzero"/></clipPath></defs><g clip-path="url(#a80dc0d11b)"><path fill="#000000" d="M 106.40625 77.8125 C 90.914062 77.8125 78.308594 90.417969 78.308594 105.910156 C 78.308594 114.039062 81.792969 121.351562 87.332031 126.484375 C 81.640625 128.382812 75.714844 129.429688 69.660156 129.632812 L 69.660156 69.164062 L 130.128906 69.164062 C 129.925781 75.210938 128.871094 81.136719 126.972656 86.828125 C 121.839844 81.296875 114.527344 77.8125 106.40625 77.8125 Z M 4.871094 69.164062 L 65.339844 69.164062 L 65.339844 129.632812 C 32.496094 128.511719 5.992188 102.007812 4.871094 69.164062 Z M 22.109375 56.195312 L 61.015625 56.195312 L 61.015625 34.582031 L 52.371094 34.582031 L 52.371094 25.9375 L 43.722656 25.9375 L 43.722656 17.292969 L 35.078125 17.292969 L 35.078125 13.382812 C 44.222656 7.84375 54.617188 4.769531 65.339844 4.398438 L 65.339844 64.84375 L 4.902344 64.84375 C 5.257812 54.324219 8.179688 44.265625 13.464844 35.300781 L 13.464844 56.195312 Z M 17.789062 4.324219 L 22.109375 4.324219 L 22.109375 51.875 L 17.789062 51.875 Z M 30.757812 12.96875 L 30.757812 51.875 L 26.433594 51.875 L 26.433594 12.96875 Z M 39.402344 25.9375 L 39.402344 51.875 L 35.078125 51.875 L 35.078125 21.613281 L 39.402344 21.613281 Z M 48.046875 34.582031 L 48.046875 51.875 L 43.722656 51.875 L 43.722656 30.257812 L 48.046875 30.257812 Z M 52.371094 38.90625 L 56.691406 38.90625 L 56.691406 51.875 L 52.371094 51.875 Z M 69.660156 22.878906 L 69.660156 4.382812 C 75.167969 4.566406 80.492188 5.460938 85.558594 6.980469 Z M 98.664062 19.4375 L 102.84375 15.265625 C 105.453125 17.0625 107.925781 19.054688 110.238281 21.207031 L 69.660156 61.785156 L 69.660156 48.445312 L 95.925781 22.179688 L 92.871094 19.125 L 69.660156 42.332031 L 69.660156 28.992188 L 90.101562 8.554688 C 93.226562 9.769531 96.230469 11.222656 99.09375 12.902344 L 95.613281 16.386719 Z M 119.238281 31.660156 L 95.089844 55.808594 L 98.148438 58.863281 L 121.601562 35.410156 C 123.28125 38.273438 124.734375 41.277344 125.949219 44.402344 L 105.511719 64.84375 L 92.171875 64.84375 L 94.964844 62.046875 L 91.910156 58.992188 L 86.058594 64.84375 L 72.71875 64.84375 L 113.292969 24.265625 C 115.449219 26.578125 117.441406 29.050781 119.238281 31.660156 Z M 130.121094 64.84375 L 111.625 64.84375 L 127.519531 48.945312 C 129.042969 54.011719 129.9375 59.335938 130.121094 64.84375 Z M 134.503906 67.003906 C 134.503906 30.058594 104.445312 0 67.5 0 C 55.917969 0 44.628906 2.996094 34.621094 8.644531 L 26.433594 8.644531 L 26.433594 0 L 13.464844 0 L 13.464844 27.421875 C 4.996094 38.964844 0.496094 52.625 0.496094 67.003906 C 0.496094 103.949219 30.554688 134.007812 67.5 134.007812 C 75.730469 134.007812 83.769531 132.53125 91.386719 129.617188 C 95.742188 132.386719 100.882812 134.007812 106.40625 134.007812 C 113.144531 134.007812 119.660156 131.585938 124.761719 127.183594 L 121.933594 123.917969 C 117.625 127.632812 112.113281 129.683594 106.40625 129.683594 C 93.292969 129.683594 82.628906 119.019531 82.628906 105.910156 C 82.628906 92.796875 93.292969 82.132812 106.40625 82.132812 C 119.515625 82.132812 130.179688 92.796875 130.179688 105.910156 C 130.179688 111.386719 128.367188 116.539062 124.9375 120.800781 L 128.304688 123.511719 C 132.300781 118.539062 134.503906 112.292969 134.503906 105.910156 C 134.503906 100.378906 132.875 95.238281 130.113281 90.878906 C 133.019531 83.265625 134.503906 75.234375 134.503906 67.003906 " fill-opacity="1" fill-rule="nonzero"/></g><path fill="#000000" d="M 53.003906 78.445312 L 27.066406 104.382812 L 30.121094 107.4375 L 56.058594 81.5 L 53.003906 78.445312 " fill-opacity="1" fill-rule="nonzero"/><path fill="#000000" d="M 50.207031 103.746094 C 49.019531 103.746094 48.046875 102.777344 48.046875 101.585938 C 48.046875 100.394531 49.019531 99.425781 50.207031 99.425781 C 51.398438 99.425781 52.371094 100.394531 52.371094 101.585938 C 52.371094 102.777344 51.398438 103.746094 50.207031 103.746094 Z M 50.207031 95.101562 C 46.628906 95.101562 43.722656 98.007812 43.722656 101.585938 C 43.722656 105.167969 46.628906 108.070312 50.207031 108.070312 C 53.789062 108.070312 56.691406 105.167969 56.691406 101.585938 C 56.691406 98.007812 53.789062 95.101562 50.207031 95.101562 " fill-opacity="1" fill-rule="nonzero"/><path fill="#000000" d="M 32.917969 82.132812 C 34.109375 82.132812 35.078125 83.105469 35.078125 84.296875 C 35.078125 85.484375 34.109375 86.457031 32.917969 86.457031 C 31.726562 86.457031 30.757812 85.484375 30.757812 84.296875 C 30.757812 83.105469 31.726562 82.132812 32.917969 82.132812 Z M 32.917969 90.777344 C 36.496094 90.777344 39.402344 87.875 39.402344 84.296875 C 39.402344 80.714844 36.496094 77.8125 32.917969 77.8125 C 29.335938 77.8125 26.433594 80.714844 26.433594 84.296875 C 26.433594 87.875 29.335938 90.777344 32.917969 90.777344 " fill-opacity="1" fill-rule="nonzero"/><path fill="#000000" d="M 106.40625 95.101562 C 108.785156 95.101562 110.726562 97.042969 110.726562 99.425781 L 115.050781 99.425781 C 115.050781 95.40625 112.28125 92.054688 108.566406 91.082031 L 108.566406 86.457031 L 104.242188 86.457031 L 104.242188 91.082031 C 100.527344 92.054688 97.757812 95.40625 97.757812 99.425781 C 97.757812 104.195312 101.636719 108.070312 106.40625 108.070312 C 108.785156 108.070312 110.726562 110.011719 110.726562 112.394531 C 110.726562 114.773438 108.785156 116.714844 106.40625 116.714844 C 104.023438 116.714844 102.082031 114.773438 102.082031 112.394531 L 97.757812 112.394531 C 97.757812 116.414062 100.527344 119.765625 104.242188 120.734375 L 104.242188 125.363281 L 108.566406 125.363281 L 108.566406 120.734375 C 112.28125 119.765625 115.050781 116.414062 115.050781 112.394531 C 115.050781 107.621094 111.175781 103.746094 106.40625 103.746094 C 104.023438 103.746094 102.082031 101.804688 102.082031 99.425781 C 102.082031 97.042969 104.023438 95.101562 106.40625 95.101562 " fill-opacity="1" fill-rule="nonzero"/><path fill="#000000" d="M 121.535156 103.746094 L 121.535156 108.070312 L 125.859375 108.070312 L 125.859375 103.746094 L 121.535156 103.746094 " fill-opacity="1" fill-rule="nonzero"/><path fill="#000000" d="M 86.953125 108.070312 L 91.277344 108.070312 L 91.277344 103.746094 L 86.953125 103.746094 L 86.953125 108.070312 " fill-opacity="1" fill-rule="nonzero"/></svg>