<svg xmlns="http://www.w3.org/2000/svg" xmlns:xlink="http://www.w3.org/1999/xlink" width="189" zoomAndPan="magnify" viewBox="0 0 141.75 104.999996" height="140" preserveAspectRatio="xMidYMid meet" version="1.0"><defs><clipPath id="83085bc3f0"><path d="M 0 0.113281 L 141.398438 0.113281 L 141.398438 104.878906 L 0 104.878906 Z M 0 0.113281 " clip-rule="nonzero"/></clipPath></defs><g clip-path="url(#83085bc3f0)"><path fill="#000000" d="M 135.1875 33.875 L 141.382812 1.273438 C 141.511719 0.597656 140.917969 0.00390625 140.238281 0.132812 L 107.640625 6.328125 C 106.871094 6.476562 106.578125 7.425781 107.132812 7.980469 L 115.132812 15.980469 C 115.515625 16.363281 115.515625 16.980469 115.132812 17.363281 L 78.21875 54.277344 C 77.835938 54.660156 77.214844 54.660156 76.835938 54.277344 L 59.898438 37.34375 C 59.519531 36.960938 58.898438 36.960938 58.519531 37.34375 L 0.285156 95.574219 C -0.09375 95.957031 -0.09375 96.574219 0.285156 96.957031 L 7.925781 104.59375 C 8.304688 104.976562 8.925781 104.976562 9.304688 104.59375 L 58.519531 55.382812 C 58.898438 55 59.519531 55 59.898438 55.382812 L 76.835938 72.316406 C 77.214844 72.699219 77.835938 72.699219 78.21875 72.316406 L 124.152344 26.382812 C 124.535156 26 125.152344 26 125.535156 26.382812 L 133.535156 34.382812 C 134.089844 34.9375 135.039062 34.644531 135.1875 33.875 " fill-opacity="1" fill-rule="nonzero"/></g></svg>